<svg id="katman_1" data-name="katman 1" xmlns="http://www.w3.org/2000/svg" viewBox="0 0 72 15.95"><defs><style>.cls-1{fill:#fff;}.cls-2{fill:#ffd111;}</style></defs><path class="cls-1" d="M774.36,166.53c-.49,0-.82-.36-.82-.95v-5.29l0-.56c0-.15,0-.27,0-.37a2.78,2.78,0,0,0-1.8.5,2,2,0,0,0-.62,1.65V166a2.18,2.18,0,0,0,2.3,2.41c.81,0,1.51-.41,1.51-1.27a3.35,3.35,0,0,0-.06-.63,2.36,2.36,0,0,1-.58.07Z" transform="translate(-703 -156.03)"/><path class="cls-2" d="M720.29,162.18c0-1.82-1.49-3-3.66-3s-4.23,1.48-4.23,4.79c0,2.53,1.52,4.39,4.17,4.39a5.21,5.21,0,0,0,3.53-1.42s-.28-1.09-1.05-1.09a2.52,2.52,0,0,0-1,.3,3.29,3.29,0,0,1-1.28.27,1.81,1.81,0,0,1-2-1.89,7.66,7.66,0,0,0,2,.18c2.91,0,3.61-1.24,3.61-2.52Zm-3.57-1c1,0,1.48.55,1.48,1s-.53,1-1.49,1a6.31,6.31,0,0,1-1.93-.2,1.86,1.86,0,0,1,1.94-1.82Zm9,5.27a1.72,1.72,0,0,1-1.61-1.21,5.6,5.6,0,0,1-.17-1.41l0-2.72h.73a1.77,1.77,0,0,0,1.36-.51,2,2,0,0,0,.48-1.39H724l0-1.21V157l0-.56a2.39,2.39,0,0,1,0-.36,2.81,2.81,0,0,0-1.79.49,2,2,0,0,0-.61,1.65l0,6c0,2.47,1.18,4.09,3.43,4.09,1.11,0,1.92-.6,1.92-1.5a1.91,1.91,0,0,0-.07-.59A5.17,5.17,0,0,1,725.72,166.41Zm5.64.12c-.49,0-.82-.36-.82-.95v-5.29l0-.56a3,3,0,0,1,0-.37,2.78,2.78,0,0,0-1.8.5,2,2,0,0,0-.62,1.65V166a2.18,2.18,0,0,0,2.3,2.41c.82,0,1.51-.41,1.51-1.27a3.35,3.35,0,0,0-.06-.63,2.36,2.36,0,0,1-.58.07Zm-2.58-8a1.19,1.19,0,0,0,.58.15,1.32,1.32,0,0,0,1.15-.69,1.42,1.42,0,0,0,.17-.67,1.4,1.4,0,0,0-.15-.64,1.16,1.16,0,0,0-.48-.45,1.07,1.07,0,0,0-.57-.16,1.32,1.32,0,0,0-.65.19,1.44,1.44,0,0,0-.49.52,1.4,1.4,0,0,0-.17.68,1.22,1.22,0,0,0,.16.62,1.14,1.14,0,0,0,.45.45Z" transform="translate(-703 -156.03)"/><path id="B" class="cls-2" d="M737.13,159.38a6.7,6.7,0,0,0-1.47.17,3.22,3.22,0,0,0-1.34.62,3.39,3.39,0,0,0-1,1.28,5,5,0,0,0-.37,2.09V166a2.25,2.25,0,0,0,.56,1.83,2.94,2.94,0,0,0,1.88.4,3.93,3.93,0,0,1,0-.45,4.17,4.17,0,0,1,0-.56c0-.24,0-.55,0-.93v-3.2c0-.76.13-1.73,1.46-1.83.74-.07,1.4-.35,1.4-1.16a2.29,2.29,0,0,0-.13-.76Z" transform="translate(-703 -156.03)"/><path id="B-2" data-name="B" class="cls-1" d="M760.93,159.38a6.7,6.7,0,0,0-1.47.17,3.19,3.19,0,0,0-1.33.62,3.29,3.29,0,0,0-1,1.28,5,5,0,0,0-.37,2.09V166a2.25,2.25,0,0,0,.56,1.83,2.91,2.91,0,0,0,1.87.4c0-.07,0-.3,0-.45s0-.33,0-.56,0-.55,0-.93v-3.2c0-.76.12-1.73,1.45-1.83.75-.07,1.41-.35,1.41-1.16a2.29,2.29,0,0,0-.13-.76Z" transform="translate(-703 -156.03)"/><path class="cls-2" d="M707.15,159.17A3.94,3.94,0,0,0,703,163.4c0,2.14,1.31,4.15,3.69,4.15a3.25,3.25,0,0,0,2.13-.68V168c0,1.23-.48,2.05-1.72,2.05a3.31,3.31,0,0,1-1.46-.35,2.33,2.33,0,0,0-1-.38c-.92,0-1.18,1.14-1.17,1.15a5,5,0,0,0,3.62,1.56c2.63,0,4.08-1.54,4.08-4.58v-3.56C711.15,161.07,709.93,159.17,707.15,159.17Zm0,6.32c-1,0-1.8-.64-1.8-2.06s.8-2.3,1.8-2.3,1.71.6,1.71,2.18S708.06,165.49,707.13,165.49Z" transform="translate(-703 -156.03)"/><path class="cls-1" d="M754.23,160.07a3.24,3.24,0,0,0-1.21-.67,5.42,5.42,0,0,0-1.66-.23,6.52,6.52,0,0,0-1.64.18,3.4,3.4,0,0,0-1.1.48,2,2,0,0,0-.61.62,1.46,1.46,0,0,0-.19.69v.5l.08-.06a3.32,3.32,0,0,1,.68-.34,4.59,4.59,0,0,1,.87-.22,7.91,7.91,0,0,1,1.18-.08,4.26,4.26,0,0,1,1.54.21,1.06,1.06,0,0,1,.66,1.06v.72H752a6.59,6.59,0,0,0-3.53.73,2.27,2.27,0,0,0-1,2.06,2.06,2.06,0,0,0,.31,1.17,2.77,2.77,0,0,0,.85.82,3.85,3.85,0,0,0,1.18.48,5.46,5.46,0,0,0,1.31.16,9,9,0,0,0,2.05-.19,2.65,2.65,0,0,0,1.23-.62,2.5,2.5,0,0,0,.65-1.18,8.21,8.21,0,0,0,.21-2v-1.44a4.48,4.48,0,0,0-.28-1.68,3,3,0,0,0-.77-1.14Zm-1.33,5.23a1.34,1.34,0,0,1-.46,1.15,1.52,1.52,0,0,1-1,.32,1.9,1.9,0,0,1-1.18-.3,1.12,1.12,0,0,1-.43-.94,1.09,1.09,0,0,1,.57-1,3.09,3.09,0,0,1,1.48-.27h1Zm-9.31,3.81A1.07,1.07,0,0,0,743,169a1.32,1.32,0,0,0-.65.19,1.3,1.3,0,0,0-.48.53,1.24,1.24,0,0,0-.18.67,1.22,1.22,0,0,0,.16.62,1.14,1.14,0,0,0,.45.45,1.2,1.2,0,0,0,.59.15,1.3,1.3,0,0,0,1.14-.69,1.24,1.24,0,0,0,.17-.67,1.33,1.33,0,0,0-.15-.63,1.12,1.12,0,0,0-.48-.46Zm-1.34-7.29a3,3,0,0,1,2.06-.64,4.12,4.12,0,0,1,1.38.22l.25.09a.15.15,0,0,0,.21-.14V161a1.4,1.4,0,0,0-.18-.7,2,2,0,0,0-.5-.59,2.7,2.7,0,0,0-.77-.41,2.81,2.81,0,0,0-.94-.15,5.4,5.4,0,0,0-2.08.37,4.4,4.4,0,0,0-1.51,1,4.22,4.22,0,0,0-.93,1.48,5.07,5.07,0,0,0-.32,1.79,5,5,0,0,0,.34,1.88,4.08,4.08,0,0,0,.93,1.42,4.32,4.32,0,0,0,1.43.91l.3.1a5.06,5.06,0,0,0,1.13.21h.42a3.38,3.38,0,0,0,1.09-.16,2.77,2.77,0,0,0,.84-.43,2.1,2.1,0,0,0,.54-.62,1.34,1.34,0,0,0,.19-.7v-.24a.15.15,0,0,0-.2-.15,2.78,2.78,0,0,1-.38.12,5.53,5.53,0,0,1-1.39.16,2.76,2.76,0,0,1-1.93-.66,2.63,2.63,0,0,1-.73-2,2.3,2.3,0,0,1,.75-1.81Zm24.67,7.29a1.13,1.13,0,0,0-.58-.16,1.41,1.41,0,0,0-1.31,1.39,1.22,1.22,0,0,0,.16.62,1.14,1.14,0,0,0,.45.45,1.2,1.2,0,0,0,.59.15,1.3,1.3,0,0,0,1.14-.69,1.35,1.35,0,0,0,.18-.67,1.23,1.23,0,0,0-.16-.63,1.16,1.16,0,0,0-.47-.46Zm2.24-5.28a3.33,3.33,0,0,0-1.72-.76l-1.18-.21a7.07,7.07,0,0,1-.7-.19.92.92,0,0,1-.44-.31A.81.81,0,0,1,765,162a.9.9,0,0,1,.5-.78,2.74,2.74,0,0,1,1.43-.27,5.9,5.9,0,0,1,1.76.24,4.71,4.71,0,0,1,.85.34v-.43a1.54,1.54,0,0,0-.73-1.36,4.11,4.11,0,0,0-2.26-.52,5.15,5.15,0,0,0-1.46.2,3.94,3.94,0,0,0-1.26.58,2.82,2.82,0,0,0-.87,1,2.56,2.56,0,0,0-.32,1.3,1.91,1.91,0,0,0,.53,1.47,3.26,3.26,0,0,0,1.74.69c.49.07.88.13,1.17.19a3.34,3.34,0,0,1,.72.21.88.88,0,0,1,.43.36.79.79,0,0,1,.11.43.9.9,0,0,1-.49.82,2.74,2.74,0,0,1-1.38.25,5.67,5.67,0,0,1-1.81-.26,5.34,5.34,0,0,1-.8-.34v.38a1.91,1.91,0,0,0,.16.8,1.4,1.4,0,0,0,.48.58,2.89,2.89,0,0,0,1,.41,4.91,4.91,0,0,0,.72.12,5.69,5.69,0,0,0,1.13,0,4.24,4.24,0,0,0,2.49-.79,2.59,2.59,0,0,0,1-2.13,2,2,0,0,0-.61-1.59Z" transform="translate(-703 -156.03)"/></svg>